<svg width="1280" height="840" viewBox="0 0 1280 840" fill="none" xmlns="http://www.w3.org/2000/svg">
<g opacity="0.3">
<ellipse cx="492.358" cy="696.226" rx="8.07141" ry="8.08541" fill="black"/>
<ellipse cx="506.486" cy="736.654" rx="3.36309" ry="3.36892" fill="black"/>
<ellipse cx="478.22" cy="777.079" rx="5.38094" ry="5.39027" fill="black"/>
<ellipse cx="492.355" cy="817.507" rx="6.05356" ry="6.06406" fill="black"/>
<ellipse cx="532.714" cy="696.227" rx="6.05356" ry="6.06406" fill="black"/>
<ellipse cx="546.847" cy="736.654" rx="3.36309" ry="3.36892" fill="black"/>
<ellipse cx="518.577" cy="777.079" rx="5.38094" ry="5.39027" fill="black"/>
<ellipse cx="532.712" cy="817.508" rx="3.36309" ry="3.36892" fill="black"/>
<ellipse cx="573.07" cy="696.225" rx="4.70832" ry="4.71649" fill="black"/>
<ellipse cx="587.203" cy="736.655" rx="6.05356" ry="6.06406" fill="black"/>
<ellipse cx="558.935" cy="777.08" rx="3.36309" ry="3.36892" fill="black"/>
<ellipse cx="573.07" cy="817.506" rx="4.70832" ry="4.71649" fill="black"/>
<ellipse cx="613.425" cy="696.225" rx="4.70832" ry="4.71649" fill="black"/>
<ellipse cx="627.563" cy="736.654" rx="4.70832" ry="4.71649" fill="black"/>
<ellipse cx="599.297" cy="777.08" rx="8.07141" ry="8.08541" fill="black"/>
<ellipse cx="613.425" cy="817.506" rx="4.70832" ry="4.71649" fill="black"/>
<ellipse cx="653.783" cy="696.225" rx="3.36309" ry="3.36892" fill="black"/>
<ellipse cx="667.919" cy="736.655" rx="6.05356" ry="6.06406" fill="black"/>
<ellipse cx="639.65" cy="777.079" rx="5.38094" ry="5.39027" fill="black"/>
<ellipse cx="653.783" cy="817.507" rx="6.05356" ry="6.06406" fill="black"/>
<ellipse cx="694.141" cy="696.225" rx="4.70832" ry="4.71649" fill="black"/>
<ellipse cx="708.272" cy="736.655" rx="6.05356" ry="6.06406" fill="black"/>
<ellipse cx="680.008" cy="777.081" rx="6.72618" ry="6.73784" fill="black"/>
<ellipse cx="694.141" cy="817.506" rx="4.70832" ry="4.71649" fill="black"/>
<ellipse cx="734.502" cy="696.225" rx="4.70832" ry="4.71649" fill="black"/>
<ellipse cx="748.636" cy="736.653" rx="4.03571" ry="4.0427" fill="black"/>
<ellipse cx="506.489" cy="8.9664" rx="6.05356" ry="6.06406" fill="black"/>
<ellipse cx="478.221" cy="49.3941" rx="6.72618" ry="6.73784" fill="black"/>
<ellipse cx="492.355" cy="89.8204" rx="5.38094" ry="5.39027" fill="black"/>
<ellipse cx="506.488" cy="130.247" rx="4.03571" ry="4.0427" fill="black"/>
<ellipse cx="478.22" cy="170.674" rx="5.38094" ry="5.39027" fill="black"/>
<ellipse cx="492.355" cy="211.101" rx="5.38094" ry="5.39027" fill="black"/>
<ellipse cx="506.488" cy="251.529" rx="4.03571" ry="4.0427" fill="black"/>
<ellipse cx="546.847" cy="8.96658" rx="3.36309" ry="3.36892" fill="black"/>
<ellipse cx="518.576" cy="49.3955" rx="4.03571" ry="4.0427" fill="black"/>
<ellipse cx="532.713" cy="89.8196" rx="4.03571" ry="4.0427" fill="black"/>
<ellipse cx="546.85" cy="130.248" rx="5.38094" ry="5.39027" fill="black"/>
<ellipse cx="518.576" cy="170.673" rx="3.36309" ry="3.36892" fill="black"/>
<ellipse cx="532.717" cy="211.102" rx="4.70832" ry="4.71649" fill="black"/>
<ellipse cx="546.847" cy="251.529" rx="4.70832" ry="4.71649" fill="black"/>
<ellipse cx="587.206" cy="8.966" rx="4.70832" ry="4.71649" fill="black"/>
<ellipse cx="558.935" cy="49.3941" rx="6.72618" ry="6.73784" fill="black"/>
<ellipse cx="573.07" cy="89.8217" rx="4.70832" ry="4.71649" fill="black"/>
<ellipse cx="587.201" cy="130.247" rx="8.07141" ry="8.08541" fill="black"/>
<ellipse cx="558.938" cy="170.674" rx="5.38094" ry="5.39027" fill="black"/>
<ellipse cx="573.069" cy="211.103" rx="3.36309" ry="3.36892" fill="black"/>
<ellipse cx="587.203" cy="251.529" rx="5.38094" ry="5.39027" fill="black"/>
<ellipse cx="627.563" cy="8.966" rx="4.70832" ry="4.71649" fill="black"/>
<ellipse cx="599.291" cy="49.3942" rx="5.38094" ry="5.39027" fill="black"/>
<ellipse cx="613.425" cy="89.8196" rx="4.03571" ry="4.0427" fill="black"/>
<ellipse cx="627.56" cy="130.248" rx="6.05356" ry="6.06406" fill="black"/>
<ellipse cx="599.291" cy="170.674" rx="5.38094" ry="5.39027" fill="black"/>
<ellipse cx="613.432" cy="211.103" rx="6.72618" ry="6.73784" fill="black"/>
<ellipse cx="627.564" cy="251.529" rx="5.38094" ry="5.39027" fill="black"/>
<ellipse cx="667.919" cy="8.9664" rx="6.05356" ry="6.06406" fill="black"/>
<ellipse cx="639.651" cy="49.3955" rx="4.03571" ry="4.0427" fill="black"/>
<ellipse cx="653.783" cy="89.8201" rx="3.36309" ry="3.36892" fill="black"/>
<ellipse cx="667.916" cy="130.247" rx="4.70832" ry="4.71649" fill="black"/>
<ellipse cx="639.651" cy="170.674" rx="4.03571" ry="4.0427" fill="black"/>
<ellipse cx="653.783" cy="211.1" rx="6.05356" ry="6.06406" fill="black"/>
<ellipse cx="667.92" cy="251.529" rx="7.39879" ry="7.41162" fill="black"/>
<ellipse cx="708.275" cy="8.966" rx="4.70832" ry="4.71649" fill="black"/>
<ellipse cx="680.005" cy="49.3937" rx="4.70832" ry="4.71649" fill="black"/>
<ellipse cx="694.141" cy="89.8204" rx="5.38094" ry="5.39027" fill="black"/>
<ellipse cx="708.278" cy="130.248" rx="5.38094" ry="5.39027" fill="black"/>
<ellipse cx="680.007" cy="170.674" rx="5.38094" ry="5.39027" fill="black"/>
<ellipse cx="694.141" cy="211.103" rx="4.03571" ry="4.0427" fill="black"/>
<ellipse cx="708.275" cy="251.529" rx="4.03571" ry="4.0427" fill="black"/>
<ellipse cx="748.629" cy="8.9664" rx="6.05356" ry="6.06406" fill="black"/>
<ellipse cx="720.361" cy="49.3933" rx="3.36309" ry="3.36892" fill="black"/>
<ellipse cx="734.496" cy="89.8204" rx="5.38094" ry="5.39027" fill="black"/>
<ellipse cx="748.629" cy="130.248" rx="6.05356" ry="6.06406" fill="black"/>
<ellipse cx="720.363" cy="170.674" rx="4.03571" ry="4.0427" fill="black"/>
<ellipse cx="734.502" cy="211.102" rx="4.70832" ry="4.71649" fill="black"/>
<ellipse cx="748.63" cy="251.529" rx="4.70832" ry="4.71649" fill="black"/>
<ellipse cx="760.719" cy="49.3937" rx="4.70832" ry="4.71649" fill="black"/>
<ellipse cx="774.856" cy="89.8211" rx="6.05356" ry="6.06406" fill="black"/>
<ellipse cx="788.991" cy="130.247" rx="4.70832" ry="4.71649" fill="black"/>
<ellipse cx="760.719" cy="170.674" rx="5.38094" ry="5.39027" fill="black"/>
<ellipse cx="774.855" cy="211.101" rx="5.38094" ry="5.39027" fill="black"/>
<ellipse cx="788.991" cy="251.529" rx="4.03571" ry="4.0427" fill="black"/>
<ellipse cx="815.211" cy="89.8196" rx="4.03571" ry="4.0427" fill="black"/>
<ellipse cx="829.347" cy="130.249" rx="3.36309" ry="3.36892" fill="black"/>
<ellipse cx="801.081" cy="170.676" rx="7.39879" ry="7.41162" fill="black"/>
<ellipse cx="815.211" cy="211.1" rx="6.05356" ry="6.06406" fill="black"/>
<ellipse cx="829.347" cy="251.528" rx="6.05356" ry="6.06406" fill="black"/>
<ellipse cx="855.574" cy="89.8201" rx="3.36309" ry="3.36892" fill="black"/>
<ellipse cx="869.699" cy="130.247" rx="4.03571" ry="4.0427" fill="black"/>
<ellipse cx="841.435" cy="170.676" rx="6.05356" ry="6.06406" fill="black"/>
<ellipse cx="855.565" cy="211.102" rx="4.70832" ry="4.71649" fill="black"/>
<ellipse cx="869.703" cy="251.53" rx="8.07141" ry="8.08541" fill="black"/>
<ellipse cx="1245" cy="170.675" rx="5.38094" ry="5.39027" transform="rotate(180 1245 170.675)" fill="black"/>
<ellipse cx="1273.27" cy="130.247" rx="6.05356" ry="6.06406" transform="rotate(180 1273.27 130.247)" fill="black"/>
<ellipse cx="1218.78" cy="211.101" rx="3.36309" ry="3.36892" transform="rotate(180 1218.78 211.101)" fill="black"/>
<ellipse cx="1204.65" cy="170.675" rx="5.38094" ry="5.39027" transform="rotate(180 1204.65 170.675)" fill="black"/>
<ellipse cx="1232.92" cy="130.249" rx="3.36309" ry="3.36892" transform="rotate(180 1232.92 130.249)" fill="black"/>
<ellipse cx="1178.42" cy="211.103" rx="6.05356" ry="6.06406" transform="rotate(180 1178.42 211.103)" fill="black"/>
<ellipse cx="1164.29" cy="170.674" rx="3.36309" ry="3.36892" transform="rotate(180 1164.29 170.674)" fill="black"/>
<ellipse cx="1192.56" cy="130.247" rx="4.70832" ry="4.71649" transform="rotate(180 1192.56 130.247)" fill="black"/>
<ellipse cx="1152.2" cy="251.529" rx="4.70832" ry="4.71649" transform="rotate(180 1152.2 251.529)" fill="black"/>
<ellipse cx="1138.07" cy="211.101" rx="4.70832" ry="4.71649" transform="rotate(180 1138.07 211.101)" fill="black"/>
<ellipse cx="1123.93" cy="170.675" rx="8.07141" ry="8.08541" transform="rotate(180 1123.93 170.675)" fill="black"/>
<ellipse cx="1152.2" cy="130.247" rx="4.70832" ry="4.71649" transform="rotate(180 1152.2 130.247)" fill="black"/>
<ellipse cx="1111.85" cy="251.529" rx="3.36309" ry="3.36892" transform="rotate(180 1111.85 251.529)" fill="black"/>
<ellipse cx="1097.71" cy="211.103" rx="6.05356" ry="6.06406" transform="rotate(180 1097.71 211.103)" fill="black"/>
<ellipse cx="1083.58" cy="170.675" rx="5.38094" ry="5.39027" transform="rotate(180 1083.58 170.675)" fill="black"/>
<ellipse cx="1111.85" cy="130.247" rx="6.05356" ry="6.06406" transform="rotate(180 1111.85 130.247)" fill="black"/>
<ellipse cx="1071.49" cy="251.529" rx="4.70832" ry="4.71649" transform="rotate(180 1071.49 251.529)" fill="black"/>
<ellipse cx="1057.35" cy="211.103" rx="6.05356" ry="6.06406" transform="rotate(180 1057.35 211.103)" fill="black"/>
<ellipse cx="1043.22" cy="170.676" rx="6.72618" ry="6.73784" transform="rotate(180 1043.22 170.676)" fill="black"/>
<ellipse cx="1071.49" cy="130.247" rx="4.70832" ry="4.71649" transform="rotate(180 1071.49 130.247)" fill="black"/>
<ellipse cx="1031.13" cy="251.529" rx="4.70832" ry="4.71649" transform="rotate(180 1031.13 251.529)" fill="black"/>
<ellipse cx="1017" cy="211.102" rx="4.03571" ry="4.0427" transform="rotate(180 1017 211.102)" fill="black"/>
<ellipse cx="1002.86" cy="170.675" rx="4.03571" ry="4.0427" transform="rotate(180 1002.86 170.675)" fill="black"/>
<ellipse cx="1031.13" cy="130.247" rx="6.05356" ry="6.06406" transform="rotate(180 1031.13 130.247)" fill="black"/>
<ellipse cx="990.772" cy="251.529" rx="8.07141" ry="8.08541" transform="rotate(180 990.772 251.529)" fill="black"/>
<ellipse cx="976.638" cy="211.101" rx="4.70832" ry="4.71649" transform="rotate(180 976.638 211.101)" fill="black"/>
<ellipse cx="962.506" cy="170.674" rx="4.70832" ry="4.71649" transform="rotate(180 962.506 170.674)" fill="black"/>
<ellipse cx="990.771" cy="130.249" rx="6.72618" ry="6.73784" transform="rotate(180 990.771 130.249)" fill="black"/>
<ellipse cx="976.638" cy="89.8211" rx="4.70832" ry="4.71649" transform="rotate(180 976.638 89.8211)" fill="black"/>
<ellipse cx="950.415" cy="251.53" rx="6.05356" ry="6.06406" transform="rotate(180 950.415 251.53)" fill="black"/>
<ellipse cx="936.281" cy="211.101" rx="4.70832" ry="4.71649" transform="rotate(180 936.281 211.101)" fill="black"/>
<ellipse cx="922.151" cy="170.676" rx="6.72618" ry="6.73784" transform="rotate(180 922.151 170.676)" fill="black"/>
<ellipse cx="950.417" cy="130.247" rx="4.70832" ry="4.71649" transform="rotate(180 950.417 130.247)" fill="black"/>
<ellipse cx="936.283" cy="89.8208" rx="8.07141" ry="8.08541" transform="rotate(180 936.283 89.8208)" fill="black"/>
<ellipse cx="910.057" cy="251.529" rx="3.36309" ry="3.36892" transform="rotate(180 910.057 251.529)" fill="black"/>
<ellipse cx="895.928" cy="211.102" rx="4.03571" ry="4.0427" transform="rotate(180 895.928 211.102)" fill="black"/>
<ellipse cx="881.791" cy="170.675" rx="5.38094" ry="5.39027" transform="rotate(180 881.791 170.675)" fill="black"/>
<ellipse cx="910.057" cy="130.249" rx="3.36309" ry="3.36892" transform="rotate(180 910.057 130.249)" fill="black"/>
<ellipse cx="895.928" cy="89.8211" rx="4.70832" ry="4.71649" transform="rotate(180 895.928 89.8211)" fill="black"/>
<ellipse cx="1245" cy="534.519" rx="6.05356" ry="6.06406" transform="rotate(180 1245 534.519)" fill="black"/>
<ellipse cx="1273.27" cy="494.092" rx="6.72618" ry="6.73784" transform="rotate(180 1273.27 494.092)" fill="black"/>
<ellipse cx="1204.65" cy="534.518" rx="3.36309" ry="3.36892" transform="rotate(180 1204.65 534.518)" fill="black"/>
<ellipse cx="1232.92" cy="494.091" rx="4.03571" ry="4.0427" transform="rotate(180 1232.92 494.091)" fill="black"/>
<ellipse cx="1204.65" cy="413.238" rx="5.38094" ry="5.39027" transform="rotate(180 1204.65 413.238)" fill="black"/>
<ellipse cx="1164.29" cy="534.517" rx="4.70832" ry="4.71649" transform="rotate(180 1164.29 534.517)" fill="black"/>
<ellipse cx="1192.56" cy="494.092" rx="6.72618" ry="6.73784" transform="rotate(180 1192.56 494.092)" fill="black"/>
<ellipse cx="1178.43" cy="453.664" rx="4.70832" ry="4.71649" transform="rotate(180 1178.43 453.664)" fill="black"/>
<ellipse cx="1164.29" cy="413.239" rx="8.07141" ry="8.08541" transform="rotate(180 1164.29 413.239)" fill="black"/>
<ellipse cx="1192.56" cy="372.81" rx="5.38094" ry="5.39027" transform="rotate(180 1192.56 372.81)" fill="black"/>
<ellipse cx="1123.94" cy="534.517" rx="4.70832" ry="4.71649" transform="rotate(180 1123.94 534.517)" fill="black"/>
<ellipse cx="1152.2" cy="494.091" rx="5.38094" ry="5.39027" transform="rotate(180 1152.2 494.091)" fill="black"/>
<ellipse cx="1138.07" cy="453.663" rx="4.03571" ry="4.0427" transform="rotate(180 1138.07 453.663)" fill="black"/>
<ellipse cx="1123.93" cy="413.237" rx="6.05356" ry="6.06406" transform="rotate(180 1123.93 413.237)" fill="black"/>
<ellipse cx="1152.2" cy="372.81" rx="5.38094" ry="5.39027" transform="rotate(180 1152.2 372.81)" fill="black"/>
<ellipse cx="1123.94" cy="291.956" rx="5.38094" ry="5.39027" transform="rotate(180 1123.94 291.956)" fill="black"/>
<ellipse cx="1083.58" cy="534.519" rx="6.05356" ry="6.06406" transform="rotate(180 1083.58 534.519)" fill="black"/>
<ellipse cx="1111.85" cy="494.091" rx="4.03571" ry="4.0427" transform="rotate(180 1111.85 494.091)" fill="black"/>
<ellipse cx="1097.71" cy="453.665" rx="3.36309" ry="3.36892" transform="rotate(180 1097.71 453.665)" fill="black"/>
<ellipse cx="1083.58" cy="413.236" rx="4.70832" ry="4.71649" transform="rotate(180 1083.58 413.236)" fill="black"/>
<ellipse cx="1111.85" cy="372.811" rx="4.03571" ry="4.0427" transform="rotate(180 1111.85 372.811)" fill="black"/>
<ellipse cx="1097.71" cy="332.382" rx="6.05356" ry="6.06406" transform="rotate(180 1097.71 332.382)" fill="black"/>
<ellipse cx="1083.58" cy="291.956" rx="7.39879" ry="7.41162" transform="rotate(180 1083.58 291.956)" fill="black"/>
<ellipse cx="1043.22" cy="534.517" rx="4.70832" ry="4.71649" transform="rotate(180 1043.22 534.517)" fill="black"/>
<ellipse cx="1071.49" cy="494.092" rx="4.70832" ry="4.71649" transform="rotate(180 1071.49 494.092)" fill="black"/>
<ellipse cx="1057.36" cy="453.663" rx="5.38094" ry="5.39027" transform="rotate(180 1057.36 453.663)" fill="black"/>
<ellipse cx="1043.22" cy="413.238" rx="5.38094" ry="5.39027" transform="rotate(180 1043.22 413.238)" fill="black"/>
<ellipse cx="1071.49" cy="372.81" rx="5.38094" ry="5.39027" transform="rotate(180 1071.49 372.81)" fill="black"/>
<ellipse cx="1057.35" cy="332.383" rx="4.03571" ry="4.0427" transform="rotate(180 1057.35 332.383)" fill="black"/>
<ellipse cx="1043.22" cy="291.955" rx="4.03571" ry="4.0427" transform="rotate(180 1043.22 291.955)" fill="black"/>
<ellipse cx="1017" cy="574.945" rx="4.03571" ry="4.0427" transform="rotate(180 1017 574.945)" fill="black"/>
<ellipse cx="1002.86" cy="534.519" rx="6.05356" ry="6.06406" transform="rotate(180 1002.86 534.519)" fill="black"/>
<ellipse cx="1031.13" cy="494.091" rx="3.36309" ry="3.36892" transform="rotate(180 1031.13 494.091)" fill="black"/>
<ellipse cx="1017" cy="453.663" rx="5.38094" ry="5.39027" transform="rotate(180 1017 453.663)" fill="black"/>
<ellipse cx="1002.86" cy="413.237" rx="6.05356" ry="6.06406" transform="rotate(180 1002.86 413.237)" fill="black"/>
<ellipse cx="1031.13" cy="372.811" rx="4.03571" ry="4.0427" transform="rotate(180 1031.13 372.811)" fill="black"/>
<ellipse cx="1017" cy="332.385" rx="4.70832" ry="4.71649" transform="rotate(180 1017 332.385)" fill="black"/>
<ellipse cx="1002.86" cy="291.957" rx="4.70832" ry="4.71649" transform="rotate(180 1002.86 291.957)" fill="black"/>
<ellipse cx="976.638" cy="574.944" rx="4.70832" ry="4.71649" transform="rotate(180 976.638 574.944)" fill="black"/>
<ellipse cx="962.508" cy="534.518" rx="6.72618" ry="6.73784" transform="rotate(180 962.508 534.518)" fill="black"/>
<ellipse cx="990.778" cy="494.092" rx="4.70832" ry="4.71649" transform="rotate(180 990.778 494.092)" fill="black"/>
<ellipse cx="976.639" cy="453.665" rx="6.05356" ry="6.06406" transform="rotate(180 976.639 453.665)" fill="black"/>
<ellipse cx="962.506" cy="413.236" rx="4.70832" ry="4.71649" transform="rotate(180 962.506 413.236)" fill="black"/>
<ellipse cx="990.776" cy="372.81" rx="5.38094" ry="5.39027" transform="rotate(180 990.776 372.81)" fill="black"/>
<ellipse cx="976.638" cy="332.382" rx="5.38094" ry="5.39027" transform="rotate(180 976.638 332.382)" fill="black"/>
<ellipse cx="962.508" cy="291.955" rx="4.03571" ry="4.0427" transform="rotate(180 962.508 291.955)" fill="black"/>
<ellipse cx="922.149" cy="534.517" rx="4.70832" ry="4.71649" transform="rotate(180 922.149 534.517)" fill="black"/>
<ellipse cx="950.417" cy="494.09" rx="8.07141" ry="8.08541" transform="rotate(180 950.417 494.09)" fill="black"/>
<ellipse cx="936.283" cy="453.663" rx="4.03571" ry="4.0427" transform="rotate(180 936.283 453.663)" fill="black"/>
<ellipse cx="922.148" cy="413.237" rx="3.36309" ry="3.36892" transform="rotate(180 922.148 413.237)" fill="black"/>
<ellipse cx="950.418" cy="372.81" rx="7.39879" ry="7.41162" transform="rotate(180 950.418 372.81)" fill="black"/>
<ellipse cx="936.282" cy="332.382" rx="6.05356" ry="6.06406" transform="rotate(180 936.282 332.382)" fill="black"/>
<ellipse cx="922.15" cy="291.956" rx="6.05356" ry="6.06406" transform="rotate(180 922.15 291.956)" fill="black"/>
<ellipse cx="895.926" cy="574.946" rx="5.38094" ry="5.39027" transform="rotate(180 895.926 574.946)" fill="black"/>
<ellipse cx="881.793" cy="534.518" rx="3.36309" ry="3.36892" transform="rotate(180 881.793 534.518)" fill="black"/>
<ellipse cx="910.062" cy="494.092" rx="4.70832" ry="4.71649" transform="rotate(180 910.062 494.092)" fill="black"/>
<ellipse cx="895.931" cy="453.665" rx="3.36309" ry="3.36892" transform="rotate(180 895.931 453.665)" fill="black"/>
<ellipse cx="881.792" cy="413.238" rx="4.03571" ry="4.0427" transform="rotate(180 881.792 413.238)" fill="black"/>
<ellipse cx="910.062" cy="372.81" rx="6.05356" ry="6.06406" transform="rotate(180 910.062 372.81)" fill="black"/>
<ellipse cx="895.928" cy="332.385" rx="4.70832" ry="4.71649" transform="rotate(180 895.928 332.385)" fill="black"/>
<ellipse cx="881.794" cy="291.956" rx="8.07141" ry="8.08541" transform="rotate(180 881.794 291.956)" fill="black"/>
<ellipse cx="478.222" cy="291.957" rx="8.07141" ry="8.08541" fill="black"/>
<ellipse cx="492.359" cy="332.383" rx="3.36309" ry="3.36892" fill="black"/>
<ellipse cx="506.491" cy="372.81" rx="5.38094" ry="5.39027" fill="black"/>
<ellipse cx="478.217" cy="413.237" rx="6.05356" ry="6.06406" fill="black"/>
<ellipse cx="492.355" cy="453.664" rx="6.72618" ry="6.73784" fill="black"/>
<ellipse cx="506.491" cy="494.091" rx="5.38094" ry="5.39027" fill="black"/>
<ellipse cx="478.225" cy="534.518" rx="4.03571" ry="4.0427" fill="black"/>
<ellipse cx="492.353" cy="574.945" rx="5.38094" ry="5.39027" fill="black"/>
<ellipse cx="506.491" cy="615.372" rx="5.38094" ry="5.39027" fill="black"/>
<ellipse cx="478.225" cy="655.799" rx="4.03571" ry="4.0427" fill="black"/>
<ellipse cx="518.582" cy="291.955" rx="6.05356" ry="6.06406" fill="black"/>
<ellipse cx="532.712" cy="332.383" rx="3.36309" ry="3.36892" fill="black"/>
<ellipse cx="546.85" cy="372.81" rx="5.38094" ry="5.39027" fill="black"/>
<ellipse cx="518.576" cy="413.236" rx="3.36309" ry="3.36892" fill="black"/>
<ellipse cx="532.713" cy="453.665" rx="4.03571" ry="4.0427" fill="black"/>
<ellipse cx="546.849" cy="494.09" rx="4.03571" ry="4.0427" fill="black"/>
<ellipse cx="518.577" cy="534.518" rx="5.38094" ry="5.39027" fill="black"/>
<ellipse cx="532.712" cy="574.946" rx="3.36309" ry="3.36892" fill="black"/>
<ellipse cx="546.847" cy="615.372" rx="4.70832" ry="4.71649" fill="black"/>
<ellipse cx="518.579" cy="655.799" rx="4.70832" ry="4.71649" fill="black"/>
<ellipse cx="558.936" cy="291.956" rx="4.70832" ry="4.71649" fill="black"/>
<ellipse cx="573.071" cy="332.383" rx="6.05356" ry="6.06406" fill="black"/>
<ellipse cx="587.204" cy="372.809" rx="3.36309" ry="3.36892" fill="black"/>
<ellipse cx="558.936" cy="413.235" rx="4.70832" ry="4.71649" fill="black"/>
<ellipse cx="573.071" cy="453.664" rx="6.72618" ry="6.73784" fill="black"/>
<ellipse cx="587.206" cy="494.091" rx="4.70832" ry="4.71649" fill="black"/>
<ellipse cx="558.936" cy="534.518" rx="8.07141" ry="8.08541" fill="black"/>
<ellipse cx="573.068" cy="574.945" rx="5.38094" ry="5.39027" fill="black"/>
<ellipse cx="587.204" cy="615.371" rx="3.36309" ry="3.36892" fill="black"/>
<ellipse cx="558.938" cy="655.8" rx="5.38094" ry="5.39027" fill="black"/>
<ellipse cx="599.291" cy="291.956" rx="4.70832" ry="4.71649" fill="black"/>
<ellipse cx="613.425" cy="332.383" rx="4.70832" ry="4.71649" fill="black"/>
<ellipse cx="627.559" cy="372.81" rx="8.07141" ry="8.08541" fill="black"/>
<ellipse cx="599.291" cy="413.235" rx="4.70832" ry="4.71649" fill="black"/>
<ellipse cx="613.427" cy="453.664" rx="5.38094" ry="5.39027" fill="black"/>
<ellipse cx="627.563" cy="494.09" rx="4.03571" ry="4.0427" fill="black"/>
<ellipse cx="599.292" cy="534.517" rx="6.05356" ry="6.06406" fill="black"/>
<ellipse cx="613.427" cy="574.945" rx="5.38094" ry="5.39027" fill="black"/>
<ellipse cx="627.563" cy="615.372" rx="6.72618" ry="6.73784" fill="black"/>
<ellipse cx="599.291" cy="655.8" rx="5.38094" ry="5.39027" fill="black"/>
<ellipse cx="639.653" cy="291.956" rx="3.36309" ry="3.36892" fill="black"/>
<ellipse cx="653.783" cy="332.383" rx="6.05356" ry="6.06406" fill="black"/>
<ellipse cx="667.917" cy="372.81" rx="5.38094" ry="5.39027" fill="black"/>
<ellipse cx="639.651" cy="413.237" rx="6.05356" ry="6.06406" fill="black"/>
<ellipse cx="653.784" cy="453.665" rx="4.03571" ry="4.0427" fill="black"/>
<ellipse cx="667.919" cy="494.091" rx="3.36309" ry="3.36892" fill="black"/>
<ellipse cx="639.652" cy="534.518" rx="4.70832" ry="4.71649" fill="black"/>
<ellipse cx="653.784" cy="574.946" rx="4.03571" ry="4.0427" fill="black"/>
<ellipse cx="667.919" cy="615.372" rx="6.05356" ry="6.06406" fill="black"/>
<ellipse cx="639.647" cy="655.799" rx="7.39879" ry="7.41162" fill="black"/>
<ellipse cx="680.005" cy="291.956" rx="4.70832" ry="4.71649" fill="black"/>
<ellipse cx="694.14" cy="332.383" rx="6.05356" ry="6.06406" fill="black"/>
<ellipse cx="708.271" cy="372.81" rx="6.72618" ry="6.73784" fill="black"/>
<ellipse cx="680.005" cy="413.235" rx="4.70832" ry="4.71649" fill="black"/>
<ellipse cx="694.141" cy="453.663" rx="4.70832" ry="4.71649" fill="black"/>
<ellipse cx="708.278" cy="494.091" rx="5.38094" ry="5.39027" fill="black"/>
<ellipse cx="680.007" cy="534.518" rx="5.38094" ry="5.39027" fill="black"/>
<ellipse cx="694.139" cy="574.945" rx="5.38094" ry="5.39027" fill="black"/>
<ellipse cx="708.275" cy="615.374" rx="4.03571" ry="4.0427" fill="black"/>
<ellipse cx="680.01" cy="655.799" rx="4.03571" ry="4.0427" fill="black"/>
<ellipse cx="720.366" cy="291.956" rx="4.70832" ry="4.71649" fill="black"/>
<ellipse cx="734.502" cy="332.383" rx="4.03571" ry="4.0427" fill="black"/>
<ellipse cx="748.636" cy="372.809" rx="4.03571" ry="4.0427" fill="black"/>
<ellipse cx="720.366" cy="413.237" rx="6.05356" ry="6.06406" fill="black"/>
<ellipse cx="734.499" cy="453.664" rx="3.36309" ry="3.36892" fill="black"/>
<ellipse cx="748.629" cy="494.091" rx="5.38094" ry="5.39027" fill="black"/>
<ellipse cx="720.366" cy="534.517" rx="6.05356" ry="6.06406" fill="black"/>
<ellipse cx="734.502" cy="574.946" rx="4.03571" ry="4.0427" fill="black"/>
<ellipse cx="748.63" cy="615.372" rx="4.70832" ry="4.71649" fill="black"/>
<ellipse cx="720.366" cy="655.799" rx="4.70832" ry="4.71649" fill="black"/>
<ellipse cx="760.723" cy="291.957" rx="8.07141" ry="8.08541" fill="black"/>
<ellipse cx="774.855" cy="332.383" rx="4.70832" ry="4.71649" fill="black"/>
<ellipse cx="788.991" cy="372.811" rx="4.70832" ry="4.71649" fill="black"/>
<ellipse cx="760.722" cy="413.238" rx="6.72618" ry="6.73784" fill="black"/>
<ellipse cx="774.855" cy="453.663" rx="4.70832" ry="4.71649" fill="black"/>
<ellipse cx="788.994" cy="494.09" rx="6.05356" ry="6.06406" fill="black"/>
<ellipse cx="760.717" cy="534.518" rx="4.70832" ry="4.71649" fill="black"/>
<ellipse cx="774.855" cy="574.945" rx="5.38094" ry="5.39027" fill="black"/>
<ellipse cx="788.99" cy="615.372" rx="5.38094" ry="5.39027" fill="black"/>
<ellipse cx="760.722" cy="655.799" rx="4.03571" ry="4.0427" fill="black"/>
<ellipse cx="801.078" cy="291.955" rx="6.05356" ry="6.06406" fill="black"/>
<ellipse cx="815.212" cy="332.383" rx="4.70832" ry="4.71649" fill="black"/>
<ellipse cx="829.347" cy="372.81" rx="6.72618" ry="6.73784" fill="black"/>
<ellipse cx="801.079" cy="413.235" rx="4.70832" ry="4.71649" fill="black"/>
<ellipse cx="815.212" cy="453.665" rx="8.07141" ry="8.08541" fill="black"/>
<ellipse cx="829.348" cy="494.09" rx="4.03571" ry="4.0427" fill="black"/>
<ellipse cx="801.079" cy="534.519" rx="3.36309" ry="3.36892" fill="black"/>
<ellipse cx="815.214" cy="574.946" rx="7.39879" ry="7.41162" fill="black"/>
<ellipse cx="829.347" cy="615.371" rx="6.05356" ry="6.06406" fill="black"/>
<ellipse cx="801.078" cy="655.798" rx="6.05356" ry="6.06406" fill="black"/>
<ellipse cx="841.438" cy="291.956" rx="3.36309" ry="3.36892" fill="black"/>
<ellipse cx="855.568" cy="332.383" rx="4.03571" ry="4.0427" fill="black"/>
<ellipse cx="869.703" cy="372.81" rx="5.38094" ry="5.39027" fill="black"/>
<ellipse cx="841.438" cy="413.236" rx="3.36309" ry="3.36892" fill="black"/>
<ellipse cx="855.565" cy="453.663" rx="4.70832" ry="4.71649" fill="black"/>
<ellipse cx="869.701" cy="494.091" rx="3.36309" ry="3.36892" fill="black"/>
<ellipse cx="841.436" cy="534.518" rx="4.03571" ry="4.0427" fill="black"/>
<ellipse cx="855.57" cy="574.946" rx="6.05356" ry="6.06406" fill="black"/>
<ellipse cx="22.2015" cy="8.966" rx="4.70832" ry="4.71649" fill="black"/>
<ellipse cx="8.07233" cy="89.8196" rx="4.03571" ry="4.0427" fill="black"/>
<ellipse cx="22.2044" cy="130.249" rx="3.36309" ry="3.36892" fill="black"/>
<ellipse cx="8.06967" cy="211.1" rx="6.05356" ry="6.06406" fill="black"/>
<ellipse cx="22.2059" cy="251.528" rx="6.05356" ry="6.06406" fill="black"/>
<ellipse cx="62.5613" cy="8.96658" rx="3.36309" ry="3.36892" fill="black"/>
<ellipse cx="34.2913" cy="49.3937" rx="4.70832" ry="4.71649" fill="black"/>
<ellipse cx="48.431" cy="89.8201" rx="3.36309" ry="3.36892" fill="black"/>
<ellipse cx="62.5635" cy="130.247" rx="4.03571" ry="4.0427" fill="black"/>
<ellipse cx="34.2923" cy="170.676" rx="6.05356" ry="6.06406" fill="black"/>
<ellipse cx="48.4281" cy="211.102" rx="4.70832" ry="4.71649" fill="black"/>
<ellipse cx="62.5621" cy="251.53" rx="8.07141" ry="8.08541" fill="black"/>
<ellipse cx="466.134" cy="251.529" rx="8.07141" ry="8.08541" transform="rotate(180 466.134 251.529)" fill="black"/>
<ellipse cx="452" cy="211.101" rx="3.36309" ry="3.36892" transform="rotate(180 452 211.101)" fill="black"/>
<ellipse cx="437.865" cy="170.675" rx="5.38094" ry="5.39027" transform="rotate(180 437.865 170.675)" fill="black"/>
<ellipse cx="466.131" cy="130.247" rx="6.05356" ry="6.06406" transform="rotate(180 466.131 130.247)" fill="black"/>
<ellipse cx="452" cy="89.8212" rx="6.72618" ry="6.73784" transform="rotate(180 452 89.8212)" fill="black"/>
<ellipse cx="437.865" cy="49.3929" rx="5.38094" ry="5.39027" transform="rotate(180 437.865 49.3929)" fill="black"/>
<ellipse cx="466.13" cy="8.96779" rx="4.03571" ry="4.0427" transform="rotate(180 466.13 8.96779)" fill="black"/>
<ellipse cx="425.774" cy="251.53" rx="6.05356" ry="6.06406" transform="rotate(180 425.774 251.53)" fill="black"/>
<ellipse cx="411.643" cy="211.101" rx="3.36309" ry="3.36892" transform="rotate(180 411.643 211.101)" fill="black"/>
<ellipse cx="397.508" cy="170.675" rx="5.38094" ry="5.39027" transform="rotate(180 397.508 170.675)" fill="black"/>
<ellipse cx="425.778" cy="130.249" rx="3.36309" ry="3.36892" transform="rotate(180 425.778 130.249)" fill="black"/>
<ellipse cx="411.641" cy="89.8213" rx="4.03571" ry="4.0427" transform="rotate(180 411.641 89.8213)" fill="black"/>
<ellipse cx="397.505" cy="49.3936" rx="4.03571" ry="4.0427" transform="rotate(180 397.505 49.3936)" fill="black"/>
<ellipse cx="425.773" cy="8.96813" rx="5.38094" ry="5.39027" transform="rotate(180 425.773 8.96813)" fill="black"/>
<ellipse cx="385.416" cy="251.529" rx="4.70832" ry="4.71649" transform="rotate(180 385.416 251.529)" fill="black"/>
<ellipse cx="371.285" cy="211.103" rx="6.05356" ry="6.06406" transform="rotate(180 371.285 211.103)" fill="black"/>
<ellipse cx="357.152" cy="170.674" rx="3.36309" ry="3.36892" transform="rotate(180 357.152 170.674)" fill="black"/>
<ellipse cx="385.416" cy="130.247" rx="4.70832" ry="4.71649" transform="rotate(180 385.416 130.247)" fill="black"/>
<ellipse cx="371.285" cy="89.8212" rx="6.72618" ry="6.73784" transform="rotate(180 371.285 89.8212)" fill="black"/>
<ellipse cx="357.149" cy="49.3944" rx="4.70832" ry="4.71649" transform="rotate(180 357.149 49.3944)" fill="black"/>
<ellipse cx="385.416" cy="8.96659" rx="8.07141" ry="8.08541" transform="rotate(180 385.416 8.96659)" fill="black"/>
<ellipse cx="345.061" cy="251.529" rx="4.70832" ry="4.71649" transform="rotate(180 345.061 251.529)" fill="black"/>
<ellipse cx="330.929" cy="211.101" rx="4.70832" ry="4.71649" transform="rotate(180 330.929 211.101)" fill="black"/>
<ellipse cx="316.794" cy="170.675" rx="8.07141" ry="8.08541" transform="rotate(180 316.794 170.675)" fill="black"/>
<ellipse cx="345.061" cy="130.247" rx="4.70832" ry="4.71649" transform="rotate(180 345.061 130.247)" fill="black"/>
<ellipse cx="330.926" cy="89.8204" rx="5.38094" ry="5.39027" transform="rotate(180 330.926 89.8204)" fill="black"/>
<ellipse cx="316.791" cy="49.3936" rx="4.03571" ry="4.0427" transform="rotate(180 316.791 49.3936)" fill="black"/>
<ellipse cx="345.062" cy="8.96597" rx="6.05356" ry="6.06406" transform="rotate(180 345.062 8.96597)" fill="black"/>
<ellipse cx="304.703" cy="251.529" rx="3.36309" ry="3.36892" transform="rotate(180 304.703 251.529)" fill="black"/>
<ellipse cx="290.571" cy="211.103" rx="6.05356" ry="6.06406" transform="rotate(180 290.571 211.103)" fill="black"/>
<ellipse cx="276.437" cy="170.675" rx="5.38094" ry="5.39027" transform="rotate(180 276.437 170.675)" fill="black"/>
<ellipse cx="304.705" cy="130.247" rx="6.05356" ry="6.06406" transform="rotate(180 304.705 130.247)" fill="black"/>
<ellipse cx="290.568" cy="89.8213" rx="4.03571" ry="4.0427" transform="rotate(180 290.568 89.8213)" fill="black"/>
<ellipse cx="276.438" cy="49.3938" rx="3.36309" ry="3.36892" transform="rotate(180 276.438 49.3938)" fill="black"/>
<ellipse cx="304.704" cy="8.96735" rx="4.70832" ry="4.71649" transform="rotate(180 304.704 8.96735)" fill="black"/>
<ellipse cx="264.351" cy="251.529" rx="4.70832" ry="4.71649" transform="rotate(180 264.351 251.529)" fill="black"/>
<ellipse cx="250.212" cy="211.103" rx="6.05356" ry="6.06406" transform="rotate(180 250.212 211.103)" fill="black"/>
<ellipse cx="236.083" cy="170.676" rx="6.72618" ry="6.73784" transform="rotate(180 236.083 170.676)" fill="black"/>
<ellipse cx="264.351" cy="130.247" rx="4.70832" ry="4.71649" transform="rotate(180 264.351 130.247)" fill="black"/>
<ellipse cx="250.213" cy="89.8211" rx="4.70832" ry="4.71649" transform="rotate(180 250.213 89.8211)" fill="black"/>
<ellipse cx="236.078" cy="49.3929" rx="5.38094" ry="5.39027" transform="rotate(180 236.078 49.3929)" fill="black"/>
<ellipse cx="264.347" cy="8.96813" rx="5.38094" ry="5.39027" transform="rotate(180 264.347 8.96813)" fill="black"/>
<ellipse cx="223.988" cy="251.529" rx="4.70832" ry="4.71649" transform="rotate(180 223.988 251.529)" fill="black"/>
<ellipse cx="209.854" cy="211.102" rx="4.03571" ry="4.0427" transform="rotate(180 209.854 211.102)" fill="black"/>
<ellipse cx="195.726" cy="170.675" rx="4.03571" ry="4.0427" transform="rotate(180 195.726 170.675)" fill="black"/>
<ellipse cx="223.989" cy="130.247" rx="6.05356" ry="6.06406" transform="rotate(180 223.989 130.247)" fill="black"/>
<ellipse cx="209.855" cy="89.8215" rx="3.36309" ry="3.36892" transform="rotate(180 209.855 89.8215)" fill="black"/>
<ellipse cx="195.723" cy="49.3929" rx="5.38094" ry="5.39027" transform="rotate(180 195.723 49.3929)" fill="black"/>
<ellipse cx="223.989" cy="8.96597" rx="6.05356" ry="6.06406" transform="rotate(180 223.989 8.96597)" fill="black"/>
<ellipse cx="183.631" cy="251.529" rx="8.07141" ry="8.08541" transform="rotate(180 183.631 251.529)" fill="black"/>
<ellipse cx="169.499" cy="211.101" rx="4.70832" ry="4.71649" transform="rotate(180 169.499 211.101)" fill="black"/>
<ellipse cx="155.365" cy="170.674" rx="4.70832" ry="4.71649" transform="rotate(180 155.365 170.674)" fill="black"/>
<ellipse cx="183.634" cy="130.249" rx="6.72618" ry="6.73784" transform="rotate(180 183.634 130.249)" fill="black"/>
<ellipse cx="169.499" cy="89.8211" rx="4.70832" ry="4.71649" transform="rotate(180 169.499 89.8211)" fill="black"/>
<ellipse cx="155.362" cy="49.3937" rx="6.05356" ry="6.06406" transform="rotate(180 155.362 49.3937)" fill="black"/>
<ellipse cx="183.633" cy="8.96735" rx="4.70832" ry="4.71649" transform="rotate(180 183.633 8.96735)" fill="black"/>
<ellipse cx="143.274" cy="251.53" rx="6.05356" ry="6.06406" transform="rotate(180 143.274 251.53)" fill="black"/>
<ellipse cx="129.142" cy="211.101" rx="4.70832" ry="4.71649" transform="rotate(180 129.142 211.101)" fill="black"/>
<ellipse cx="115.008" cy="170.676" rx="6.72618" ry="6.73784" transform="rotate(180 115.008 170.676)" fill="black"/>
<ellipse cx="143.276" cy="130.247" rx="4.70832" ry="4.71649" transform="rotate(180 143.276 130.247)" fill="black"/>
<ellipse cx="129.144" cy="89.8208" rx="8.07141" ry="8.08541" transform="rotate(180 129.144 89.8208)" fill="black"/>
<ellipse cx="115.012" cy="49.3936" rx="4.03571" ry="4.0427" transform="rotate(180 115.012 49.3936)" fill="black"/>
<ellipse cx="143.277" cy="8.96653" rx="3.36309" ry="3.36892" transform="rotate(180 143.277 8.96653)" fill="black"/>
<ellipse cx="102.918" cy="251.529" rx="3.36309" ry="3.36892" transform="rotate(180 102.918 251.529)" fill="black"/>
<ellipse cx="88.7875" cy="211.102" rx="4.03571" ry="4.0427" transform="rotate(180 88.7875 211.102)" fill="black"/>
<ellipse cx="74.6503" cy="170.675" rx="5.38094" ry="5.39027" transform="rotate(180 74.6503 170.675)" fill="black"/>
<ellipse cx="102.918" cy="130.249" rx="3.36309" ry="3.36892" transform="rotate(180 102.918 130.249)" fill="black"/>
<ellipse cx="88.7851" cy="89.8211" rx="4.70832" ry="4.71649" transform="rotate(180 88.7851 89.8211)" fill="black"/>
<ellipse cx="74.6535" cy="49.3938" rx="3.36309" ry="3.36892" transform="rotate(180 74.6535 49.3938)" fill="black"/>
<ellipse cx="102.92" cy="8.96779" rx="4.03571" ry="4.0427" transform="rotate(180 102.92 8.96779)" fill="black"/>
<ellipse cx="437.865" cy="655.798" rx="8.07141" ry="8.08541" transform="rotate(180 437.865 655.798)" fill="black"/>
<ellipse cx="466.133" cy="615.372" rx="3.36309" ry="3.36892" transform="rotate(180 466.133 615.372)" fill="black"/>
<ellipse cx="451.997" cy="574.947" rx="5.38094" ry="5.39027" transform="rotate(180 451.997 574.947)" fill="black"/>
<ellipse cx="437.862" cy="534.519" rx="6.05356" ry="6.06406" transform="rotate(180 437.862 534.519)" fill="black"/>
<ellipse cx="466.133" cy="494.092" rx="6.72618" ry="6.73784" transform="rotate(180 466.133 494.092)" fill="black"/>
<ellipse cx="451.997" cy="453.663" rx="5.38094" ry="5.39027" transform="rotate(180 451.997 453.663)" fill="black"/>
<ellipse cx="437.866" cy="413.238" rx="4.03571" ry="4.0427" transform="rotate(180 437.866 413.238)" fill="black"/>
<ellipse cx="466.135" cy="372.81" rx="5.38094" ry="5.39027" transform="rotate(180 466.135 372.81)" fill="black"/>
<ellipse cx="451.997" cy="332.382" rx="5.38094" ry="5.39027" transform="rotate(180 451.997 332.382)" fill="black"/>
<ellipse cx="437.866" cy="291.955" rx="4.03571" ry="4.0427" transform="rotate(180 437.866 291.955)" fill="black"/>
<ellipse cx="397.511" cy="655.8" rx="6.05356" ry="6.06406" transform="rotate(180 397.511 655.8)" fill="black"/>
<ellipse cx="425.778" cy="615.372" rx="3.36309" ry="3.36892" transform="rotate(180 425.778 615.372)" fill="black"/>
<ellipse cx="411.638" cy="574.947" rx="5.38094" ry="5.39027" transform="rotate(180 411.638 574.947)" fill="black"/>
<ellipse cx="397.505" cy="534.518" rx="3.36309" ry="3.36892" transform="rotate(180 397.505 534.518)" fill="black"/>
<ellipse cx="425.777" cy="494.091" rx="4.03571" ry="4.0427" transform="rotate(180 425.777 494.091)" fill="black"/>
<ellipse cx="411.641" cy="453.663" rx="4.03571" ry="4.0427" transform="rotate(180 411.641 453.663)" fill="black"/>
<ellipse cx="397.508" cy="413.238" rx="5.38094" ry="5.39027" transform="rotate(180 397.508 413.238)" fill="black"/>
<ellipse cx="425.778" cy="372.81" rx="3.36309" ry="3.36892" transform="rotate(180 425.778 372.81)" fill="black"/>
<ellipse cx="411.639" cy="332.385" rx="4.70832" ry="4.71649" transform="rotate(180 411.639 332.385)" fill="black"/>
<ellipse cx="397.51" cy="291.957" rx="4.70832" ry="4.71649" transform="rotate(180 397.51 291.957)" fill="black"/>
<ellipse cx="357.149" cy="655.8" rx="4.70832" ry="4.71649" transform="rotate(180 357.149 655.8)" fill="black"/>
<ellipse cx="385.421" cy="615.372" rx="6.05356" ry="6.06406" transform="rotate(180 385.421 615.372)" fill="black"/>
<ellipse cx="371.28" cy="574.945" rx="3.36309" ry="3.36892" transform="rotate(180 371.28 574.945)" fill="black"/>
<ellipse cx="357.149" cy="534.517" rx="4.70832" ry="4.71649" transform="rotate(180 357.149 534.517)" fill="black"/>
<ellipse cx="385.421" cy="494.092" rx="6.72618" ry="6.73784" transform="rotate(180 385.421 494.092)" fill="black"/>
<ellipse cx="371.286" cy="453.664" rx="4.70832" ry="4.71649" transform="rotate(180 371.286 453.664)" fill="black"/>
<ellipse cx="357.155" cy="413.239" rx="8.07141" ry="8.08541" transform="rotate(180 357.155 413.239)" fill="black"/>
<ellipse cx="385.422" cy="372.81" rx="5.38094" ry="5.39027" transform="rotate(180 385.422 372.81)" fill="black"/>
<ellipse cx="371.28" cy="332.384" rx="3.36309" ry="3.36892" transform="rotate(180 371.28 332.384)" fill="black"/>
<ellipse cx="357.149" cy="291.956" rx="5.38094" ry="5.39027" transform="rotate(180 357.149 291.956)" fill="black"/>
<ellipse cx="316.792" cy="655.8" rx="4.70832" ry="4.71649" transform="rotate(180 316.792 655.8)" fill="black"/>
<ellipse cx="345.061" cy="615.373" rx="4.70832" ry="4.71649" transform="rotate(180 345.061 615.373)" fill="black"/>
<ellipse cx="330.927" cy="574.945" rx="8.07141" ry="8.08541" transform="rotate(180 330.927 574.945)" fill="black"/>
<ellipse cx="316.792" cy="534.517" rx="4.70832" ry="4.71649" transform="rotate(180 316.792 534.517)" fill="black"/>
<ellipse cx="345.063" cy="494.091" rx="5.38094" ry="5.39027" transform="rotate(180 345.063 494.091)" fill="black"/>
<ellipse cx="330.929" cy="453.663" rx="4.03571" ry="4.0427" transform="rotate(180 330.929 453.663)" fill="black"/>
<ellipse cx="316.796" cy="413.237" rx="6.05356" ry="6.06406" transform="rotate(180 316.796 413.237)" fill="black"/>
<ellipse cx="345.063" cy="372.81" rx="5.38094" ry="5.39027" transform="rotate(180 345.063 372.81)" fill="black"/>
<ellipse cx="330.93" cy="332.383" rx="6.72618" ry="6.73784" transform="rotate(180 330.93 332.383)" fill="black"/>
<ellipse cx="316.796" cy="291.956" rx="5.38094" ry="5.39027" transform="rotate(180 316.796 291.956)" fill="black"/>
<ellipse cx="276.438" cy="655.8" rx="3.36309" ry="3.36892" transform="rotate(180 276.438 655.8)" fill="black"/>
<ellipse cx="304.705" cy="615.372" rx="6.05356" ry="6.06406" transform="rotate(180 304.705 615.372)" fill="black"/>
<ellipse cx="290.571" cy="574.947" rx="5.38094" ry="5.39027" transform="rotate(180 290.571 574.947)" fill="black"/>
<ellipse cx="276.435" cy="534.519" rx="6.05356" ry="6.06406" transform="rotate(180 276.435 534.519)" fill="black"/>
<ellipse cx="304.705" cy="494.091" rx="4.03571" ry="4.0427" transform="rotate(180 304.705 494.091)" fill="black"/>
<ellipse cx="290.569" cy="453.665" rx="3.36309" ry="3.36892" transform="rotate(180 290.569 453.665)" fill="black"/>
<ellipse cx="276.437" cy="413.236" rx="4.70832" ry="4.71649" transform="rotate(180 276.437 413.236)" fill="black"/>
<ellipse cx="304.705" cy="372.811" rx="4.03571" ry="4.0427" transform="rotate(180 304.705 372.811)" fill="black"/>
<ellipse cx="290.571" cy="332.382" rx="6.05356" ry="6.06406" transform="rotate(180 290.571 332.382)" fill="black"/>
<ellipse cx="276.436" cy="291.956" rx="7.39879" ry="7.41162" transform="rotate(180 276.436 291.956)" fill="black"/>
<ellipse cx="236.079" cy="655.8" rx="4.70832" ry="4.71649" transform="rotate(180 236.079 655.8)" fill="black"/>
<ellipse cx="264.346" cy="615.372" rx="6.05356" ry="6.06406" transform="rotate(180 264.346 615.372)" fill="black"/>
<ellipse cx="250.21" cy="574.945" rx="6.72618" ry="6.73784" transform="rotate(180 250.21 574.945)" fill="black"/>
<ellipse cx="236.079" cy="534.517" rx="4.70832" ry="4.71649" transform="rotate(180 236.079 534.517)" fill="black"/>
<ellipse cx="264.351" cy="494.092" rx="4.70832" ry="4.71649" transform="rotate(180 264.351 494.092)" fill="black"/>
<ellipse cx="250.213" cy="453.663" rx="5.38094" ry="5.39027" transform="rotate(180 250.213 453.663)" fill="black"/>
<ellipse cx="236.078" cy="413.238" rx="5.38094" ry="5.39027" transform="rotate(180 236.078 413.238)" fill="black"/>
<ellipse cx="264.347" cy="372.81" rx="5.38094" ry="5.39027" transform="rotate(180 264.347 372.81)" fill="black"/>
<ellipse cx="250.213" cy="332.383" rx="4.03571" ry="4.0427" transform="rotate(180 250.213 332.383)" fill="black"/>
<ellipse cx="236.079" cy="291.955" rx="4.03571" ry="4.0427" transform="rotate(180 236.079 291.955)" fill="black"/>
<ellipse cx="195.724" cy="655.8" rx="4.70832" ry="4.71649" transform="rotate(180 195.724 655.8)" fill="black"/>
<ellipse cx="223.993" cy="615.374" rx="4.03571" ry="4.0427" transform="rotate(180 223.993 615.374)" fill="black"/>
<ellipse cx="209.854" cy="574.945" rx="4.03571" ry="4.0427" transform="rotate(180 209.854 574.945)" fill="black"/>
<ellipse cx="195.723" cy="534.519" rx="6.05356" ry="6.06406" transform="rotate(180 195.723 534.519)" fill="black"/>
<ellipse cx="223.993" cy="494.091" rx="3.36309" ry="3.36892" transform="rotate(180 223.993 494.091)" fill="black"/>
<ellipse cx="209.857" cy="453.663" rx="5.38094" ry="5.39027" transform="rotate(180 209.857 453.663)" fill="black"/>
<ellipse cx="195.723" cy="413.237" rx="6.05356" ry="6.06406" transform="rotate(180 195.723 413.237)" fill="black"/>
<ellipse cx="223.993" cy="372.811" rx="4.03571" ry="4.0427" transform="rotate(180 223.993 372.811)" fill="black"/>
<ellipse cx="209.854" cy="332.385" rx="4.70832" ry="4.71649" transform="rotate(180 209.854 332.385)" fill="black"/>
<ellipse cx="195.724" cy="291.957" rx="4.70832" ry="4.71649" transform="rotate(180 195.724 291.957)" fill="black"/>
<ellipse cx="155.367" cy="655.798" rx="8.07141" ry="8.08541" transform="rotate(180 155.367 655.798)" fill="black"/>
<ellipse cx="183.633" cy="615.373" rx="4.70832" ry="4.71649" transform="rotate(180 183.633 615.373)" fill="black"/>
<ellipse cx="169.499" cy="574.945" rx="4.70832" ry="4.71649" transform="rotate(180 169.499 574.945)" fill="black"/>
<ellipse cx="155.368" cy="534.518" rx="6.72618" ry="6.73784" transform="rotate(180 155.368 534.518)" fill="black"/>
<ellipse cx="183.633" cy="494.092" rx="4.70832" ry="4.71649" transform="rotate(180 183.633 494.092)" fill="black"/>
<ellipse cx="169.498" cy="453.665" rx="6.05356" ry="6.06406" transform="rotate(180 169.498 453.665)" fill="black"/>
<ellipse cx="155.365" cy="413.236" rx="4.70832" ry="4.71649" transform="rotate(180 155.365 413.236)" fill="black"/>
<ellipse cx="183.633" cy="372.81" rx="5.38094" ry="5.39027" transform="rotate(180 183.633 372.81)" fill="black"/>
<ellipse cx="169.5" cy="332.382" rx="5.38094" ry="5.39027" transform="rotate(180 169.5 332.382)" fill="black"/>
<ellipse cx="155.365" cy="291.955" rx="4.03571" ry="4.0427" transform="rotate(180 155.365 291.955)" fill="black"/>
<ellipse cx="115.009" cy="655.8" rx="6.05356" ry="6.06406" transform="rotate(180 115.009 655.8)" fill="black"/>
<ellipse cx="143.276" cy="615.373" rx="4.70832" ry="4.71649" transform="rotate(180 143.276 615.373)" fill="black"/>
<ellipse cx="129.143" cy="574.945" rx="6.72618" ry="6.73784" transform="rotate(180 129.143 574.945)" fill="black"/>
<ellipse cx="115.01" cy="534.517" rx="4.70832" ry="4.71649" transform="rotate(180 115.01 534.517)" fill="black"/>
<ellipse cx="143.278" cy="494.09" rx="8.07141" ry="8.08541" transform="rotate(180 143.278 494.09)" fill="black"/>
<ellipse cx="129.141" cy="453.663" rx="4.03571" ry="4.0427" transform="rotate(180 129.141 453.663)" fill="black"/>
<ellipse cx="115.008" cy="413.237" rx="3.36309" ry="3.36892" transform="rotate(180 115.008 413.237)" fill="black"/>
<ellipse cx="143.279" cy="372.81" rx="7.39879" ry="7.41162" transform="rotate(180 143.279 372.81)" fill="black"/>
<ellipse cx="129.145" cy="332.382" rx="6.05356" ry="6.06406" transform="rotate(180 129.145 332.382)" fill="black"/>
<ellipse cx="115.009" cy="291.956" rx="6.05356" ry="6.06406" transform="rotate(180 115.009 291.956)" fill="black"/>
<ellipse cx="74.6535" cy="655.8" rx="3.36309" ry="3.36892" transform="rotate(180 74.6535 655.8)" fill="black"/>
<ellipse cx="102.918" cy="615.374" rx="4.03571" ry="4.0427" transform="rotate(180 102.918 615.374)" fill="black"/>
<ellipse cx="88.7865" cy="574.947" rx="5.38094" ry="5.39027" transform="rotate(180 88.7865 574.947)" fill="black"/>
<ellipse cx="74.6535" cy="534.518" rx="3.36309" ry="3.36892" transform="rotate(180 74.6535 534.518)" fill="black"/>
<ellipse cx="102.923" cy="494.092" rx="4.70832" ry="4.71649" transform="rotate(180 102.923 494.092)" fill="black"/>
<ellipse cx="88.7878" cy="453.665" rx="3.36309" ry="3.36892" transform="rotate(180 88.7878 453.665)" fill="black"/>
<ellipse cx="74.6513" cy="413.238" rx="4.03571" ry="4.0427" transform="rotate(180 74.6513 413.238)" fill="black"/>
<ellipse cx="102.921" cy="372.81" rx="6.05356" ry="6.06406" transform="rotate(180 102.921 372.81)" fill="black"/>
<ellipse cx="88.7851" cy="332.385" rx="4.70832" ry="4.71649" transform="rotate(180 88.7851 332.385)" fill="black"/>
<ellipse cx="74.6527" cy="291.956" rx="8.07141" ry="8.08541" transform="rotate(180 74.6527 291.956)" fill="black"/>
<ellipse cx="8.07258" cy="332.383" rx="4.70832" ry="4.71649" fill="black"/>
<ellipse cx="22.2042" cy="372.81" rx="6.72618" ry="6.73784" fill="black"/>
<ellipse cx="8.07092" cy="453.665" rx="8.07141" ry="8.08541" fill="black"/>
<ellipse cx="22.2047" cy="494.09" rx="4.03571" ry="4.0427" fill="black"/>
<ellipse cx="8.07067" cy="574.946" rx="7.39879" ry="7.41162" fill="black"/>
<ellipse cx="22.2039" cy="615.372" rx="6.05356" ry="6.06406" fill="black"/>
<ellipse cx="34.2947" cy="291.956" rx="3.36309" ry="3.36892" fill="black"/>
<ellipse cx="48.4254" cy="332.383" rx="4.03571" ry="4.0427" fill="black"/>
<ellipse cx="62.5606" cy="372.81" rx="5.38094" ry="5.39027" fill="black"/>
<ellipse cx="34.2947" cy="413.236" rx="3.36309" ry="3.36892" fill="black"/>
<ellipse cx="48.4281" cy="453.663" rx="4.70832" ry="4.71649" fill="black"/>
<ellipse cx="62.5613" cy="494.091" rx="3.36309" ry="3.36892" fill="black"/>
<ellipse cx="34.2969" cy="534.518" rx="4.03571" ry="4.0427" fill="black"/>
<ellipse cx="48.4286" cy="574.946" rx="6.05356" ry="6.06406" fill="black"/>
<ellipse cx="62.5638" cy="615.372" rx="4.70832" ry="4.71649" fill="black"/>
<ellipse cx="34.2955" cy="655.799" rx="8.07141" ry="8.08541" fill="black"/>
<ellipse cx="8.06577" cy="696.227" rx="6.05356" ry="6.06406" fill="black"/>
<ellipse cx="22.2015" cy="736.654" rx="4.70832" ry="4.71649" fill="black"/>
<ellipse cx="8.07258" cy="817.506" rx="4.70832" ry="4.71649" fill="black"/>
<ellipse cx="48.431" cy="696.225" rx="3.36309" ry="3.36892" fill="black"/>
<ellipse cx="62.5635" cy="736.653" rx="4.03571" ry="4.0427" fill="black"/>
<ellipse cx="34.294" cy="777.079" rx="5.38094" ry="5.39027" fill="black"/>
<ellipse cx="48.431" cy="817.508" rx="3.36309" ry="3.36892" fill="black"/>
<ellipse cx="452.002" cy="817.507" rx="4.03571" ry="4.0427" transform="rotate(180 452.002 817.507)" fill="black"/>
<ellipse cx="437.865" cy="777.081" rx="5.38094" ry="5.39027" transform="rotate(180 437.865 777.081)" fill="black"/>
<ellipse cx="466.135" cy="736.654" rx="5.38094" ry="5.39027" transform="rotate(180 466.135 736.654)" fill="black"/>
<ellipse cx="452.002" cy="696.227" rx="4.03571" ry="4.0427" transform="rotate(180 452.002 696.227)" fill="black"/>
<ellipse cx="411.638" cy="817.508" rx="5.38094" ry="5.39027" transform="rotate(180 411.638 817.508)" fill="black"/>
<ellipse cx="397.505" cy="777.078" rx="3.36309" ry="3.36892" transform="rotate(180 397.505 777.078)" fill="black"/>
<ellipse cx="425.777" cy="736.652" rx="4.70832" ry="4.71649" transform="rotate(180 425.777 736.652)" fill="black"/>
<ellipse cx="411.639" cy="696.227" rx="4.70832" ry="4.71649" transform="rotate(180 411.639 696.227)" fill="black"/>
<ellipse cx="371.282" cy="817.508" rx="8.07141" ry="8.08541" transform="rotate(180 371.282 817.508)" fill="black"/>
<ellipse cx="357.149" cy="777.081" rx="5.38094" ry="5.39027" transform="rotate(180 357.149 777.081)" fill="black"/>
<ellipse cx="385.419" cy="736.655" rx="3.36309" ry="3.36892" transform="rotate(180 385.419 736.655)" fill="black"/>
<ellipse cx="371.285" cy="696.226" rx="5.38094" ry="5.39027" transform="rotate(180 371.285 696.226)" fill="black"/>
<ellipse cx="330.924" cy="817.508" rx="6.05356" ry="6.06406" transform="rotate(180 330.924 817.508)" fill="black"/>
<ellipse cx="316.796" cy="777.081" rx="5.38094" ry="5.39027" transform="rotate(180 316.796 777.081)" fill="black"/>
<ellipse cx="345.06" cy="736.654" rx="6.72618" ry="6.73784" transform="rotate(180 345.06 736.654)" fill="black"/>
<ellipse cx="330.926" cy="696.226" rx="5.38094" ry="5.39027" transform="rotate(180 330.926 696.226)" fill="black"/>
<ellipse cx="290.572" cy="817.507" rx="4.70832" ry="4.71649" transform="rotate(180 290.572 817.507)" fill="black"/>
<ellipse cx="276.44" cy="777.081" rx="4.03571" ry="4.0427" transform="rotate(180 276.44 777.081)" fill="black"/>
<ellipse cx="304.705" cy="736.654" rx="6.05356" ry="6.06406" transform="rotate(180 304.705 736.654)" fill="black"/>
<ellipse cx="290.57" cy="696.228" rx="7.39879" ry="7.41162" transform="rotate(180 290.57 696.228)" fill="black"/>
<ellipse cx="250.213" cy="817.508" rx="5.38094" ry="5.39027" transform="rotate(180 250.213 817.508)" fill="black"/>
<ellipse cx="236.078" cy="777.081" rx="5.38094" ry="5.39027" transform="rotate(180 236.078 777.081)" fill="black"/>
<ellipse cx="264.352" cy="736.652" rx="4.03571" ry="4.0427" transform="rotate(180 264.352 736.652)" fill="black"/>
<ellipse cx="250.213" cy="696.227" rx="4.03571" ry="4.0427" transform="rotate(180 250.213 696.227)" fill="black"/>
<ellipse cx="209.857" cy="817.508" rx="6.05356" ry="6.06406" transform="rotate(180 209.857 817.508)" fill="black"/>
<ellipse cx="195.726" cy="777.081" rx="4.03571" ry="4.0427" transform="rotate(180 195.726 777.081)" fill="black"/>
<ellipse cx="223.988" cy="736.652" rx="4.70832" ry="4.71649" transform="rotate(180 223.988 736.652)" fill="black"/>
<ellipse cx="209.854" cy="696.227" rx="4.70832" ry="4.71649" transform="rotate(180 209.854 696.227)" fill="black"/>
<ellipse cx="169.499" cy="817.507" rx="4.70832" ry="4.71649" transform="rotate(180 169.499 817.507)" fill="black"/>
<ellipse cx="155.362" cy="777.081" rx="5.38094" ry="5.39027" transform="rotate(180 155.362 777.081)" fill="black"/>
<ellipse cx="183.633" cy="736.654" rx="5.38094" ry="5.39027" transform="rotate(180 183.633 736.654)" fill="black"/>
<ellipse cx="169.501" cy="696.227" rx="4.03571" ry="4.0427" transform="rotate(180 169.501 696.227)" fill="black"/>
<ellipse cx="129.143" cy="817.507" rx="3.36309" ry="3.36892" transform="rotate(180 129.143 817.507)" fill="black"/>
<ellipse cx="115.008" cy="777.079" rx="7.39879" ry="7.41162" transform="rotate(180 115.008 777.079)" fill="black"/>
<ellipse cx="143.274" cy="736.654" rx="6.05356" ry="6.06406" transform="rotate(180 143.274 736.654)" fill="black"/>
<ellipse cx="129.145" cy="696.227" rx="6.05356" ry="6.06406" transform="rotate(180 129.145 696.227)" fill="black"/>
<ellipse cx="88.7875" cy="817.507" rx="4.03571" ry="4.0427" transform="rotate(180 88.7875 817.507)" fill="black"/>
<ellipse cx="74.6501" cy="777.08" rx="6.05356" ry="6.06406" transform="rotate(180 74.6501 777.08)" fill="black"/>
<ellipse cx="102.921" cy="736.652" rx="4.70832" ry="4.71649" transform="rotate(180 102.921 736.652)" fill="black"/>
<ellipse cx="88.7831" cy="696.227" rx="8.07141" ry="8.08541" transform="rotate(180 88.7831 696.227)" fill="black"/>
</g>
</svg>
